<svg width="18" height="18" viewBox="0 0 18 18" fill="none" xmlns="http://www.w3.org/2000/svg">
<g id="carbon:next-outline">
<path id="Vector" d="M9 4.75L8.24031 5.49003L11.2047 8.46875H4.75V9.53125H11.2047L8.24031 12.4919L9 13.25L13.25 9L9 4.75Z" fill="#FF00E6"/>
<path id="Vector_2" d="M9 16.4375C7.529 16.4375 6.09104 16.0013 4.86795 15.1841C3.64486 14.3668 2.69157 13.2052 2.12865 11.8462C1.56572 10.4872 1.41843 8.99176 1.70541 7.54902C1.99239 6.10629 2.70074 4.78105 3.74089 3.7409C4.78105 2.70074 6.10628 1.99239 7.54902 1.70541C8.99175 1.41844 10.4872 1.56572 11.8462 2.12865C13.2052 2.69158 14.3668 3.64486 15.1841 4.86795C16.0013 6.09104 16.4375 7.52901 16.4375 9.00001C16.4353 10.9719 15.6509 12.8623 14.2566 14.2566C12.8623 15.6509 10.9719 16.4353 9 16.4375ZM9 2.625C7.73915 2.625 6.5066 2.99889 5.45824 3.69938C4.40988 4.39988 3.59278 5.39552 3.11027 6.5604C2.62776 7.72528 2.50151 9.00708 2.74749 10.2437C2.99347 11.4803 3.60063 12.6163 4.49219 13.5078C5.38375 14.3994 6.51967 15.0065 7.7563 15.2525C8.99293 15.4985 10.2747 15.3722 11.4396 14.8897C12.6045 14.4072 13.6001 13.5901 14.3006 12.5418C15.0011 11.4934 15.375 10.2609 15.375 9.00001C15.373 7.30985 14.7008 5.68949 13.5056 4.49437C12.3105 3.29925 10.6902 2.62697 9 2.625Z" fill="#FF00E6"/>
</g>
</svg>
